<?xml version="1.0" encoding="utf-8"?>
<svg version="1.1" xmlns:xlink="http://www.w3.org/1999/xlink" width="40px" height="40px" xmlns="http://www.w3.org/2000/svg">
  <defs>
    <filter x="869px" y="472px" width="40px" height="40px" filterUnits="userSpaceOnUse" id="filter15">
      <feOffset dx="5" dy="5" in="SourceAlpha" result="shadowOffsetInner" />
      <feGaussianBlur stdDeviation="2.5" in="shadowOffsetInner" result="shadowGaussian" />
      <feComposite in2="shadowGaussian" operator="atop" in="SourceAlpha" result="shadowComposite" />
      <feColorMatrix type="matrix" values="0 0 0 0 0  0 0 0 0 0  0 0 0 0 0  0 0 0 0.349019607843137 0  " in="shadowComposite" />
    </filter>
    <g id="widget16">
      <path d="M 870.5 487  A 13.5 13.5 0 0 1 884 473.5 A 13.5 13.5 0 0 1 897.5 487 A 13.5 13.5 0 0 1 884 500.5 A 13.5 13.5 0 0 1 870.5 487 Z " fill-rule="nonzero" fill="#c280ff" stroke="none" fill-opacity="0.8" />
      <path d="M 870 487  A 14 14 0 0 1 884 473 A 14 14 0 0 1 898 487 A 14 14 0 0 1 884 501 A 14 14 0 0 1 870 487 Z " stroke-width="2" stroke="#ffffff" fill="none" />
    </g>
  </defs>
  <g transform="matrix(1 0 0 1 -869 -472 )">
    <use xlink:href="#widget16" filter="url(#filter15)" />
    <use xlink:href="#widget16" />
  </g>
</svg>