<?xml version="1.0" encoding="utf-8"?>
<svg version="1.1" xmlns:xlink="http://www.w3.org/1999/xlink" width="40px" height="40px" xmlns="http://www.w3.org/2000/svg">
  <defs>
    <filter x="503px" y="265px" width="40px" height="40px" filterUnits="userSpaceOnUse" id="filter1">
      <feOffset dx="5" dy="5" in="SourceAlpha" result="shadowOffsetInner" />
      <feGaussianBlur stdDeviation="2.5" in="shadowOffsetInner" result="shadowGaussian" />
      <feComposite in2="shadowGaussian" operator="atop" in="SourceAlpha" result="shadowComposite" />
      <feColorMatrix type="matrix" values="0 0 0 0 0  0 0 0 0 0  0 0 0 0 0  0 0 0 0.349019607843137 0  " in="shadowComposite" />
    </filter>
    <g id="widget2">
      <path d="M 504.5 275  A 8.5 8.5 0 0 1 513 266.5 L 523 266.5  A 8.5 8.5 0 0 1 531.5 275 L 531.5 285  A 8.5 8.5 0 0 1 523 293.5 L 513 293.5  A 8.5 8.5 0 0 1 504.5 285 L 504.5 275  Z " fill-rule="nonzero" fill="#ff3366" stroke="none" fill-opacity="0.8" />
      <path d="M 504 275  A 9 9 0 0 1 513 266 L 523 266  A 9 9 0 0 1 532 275 L 532 285  A 9 9 0 0 1 523 294 L 513 294  A 9 9 0 0 1 504 285 L 504 275  Z " stroke-width="2" stroke="#ffffff" fill="none" />
    </g>
  </defs>
  <g transform="matrix(1 0 0 1 -503 -265 )">
    <use xlink:href="#widget2" filter="url(#filter1)" />
    <use xlink:href="#widget2" />
  </g>
</svg>