<?xml version="1.0" encoding="utf-8"?>
<svg version="1.1" xmlns:xlink="http://www.w3.org/1999/xlink" width="20px" height="20px" xmlns="http://www.w3.org/2000/svg">
  <g transform="matrix(1 0 0 1 -749 -20 )">
    <path d="M 19.3287417763158 19.3287417763158  C 20.0483141447368 18.6040296052632  20.0483141447368 17.4321546052632  19.3287417763158 16.7125822368421  L 12.6161595394737 10  L 19.3287417763158 3.28741776315789  C 20.0534539473684 2.56270559210526  20.0534539473684 1.39597039473684  19.3287417763158 0.671258223684211  C 18.6040296052632 -0.0534539473684211  17.4372944078947 -0.0534539473684211  16.7125822368421 0.671258223684211  L 10 7.38384046052632  L 3.28741776315789 0.671258223684211  C 2.56270559210526 -0.0534539473684211  1.39597039473684 -0.0534539473684211  0.671258223684211 0.671258223684211  C -0.0534539473684211 1.39597039473684  -0.0534539473684211 2.56270559210526  0.671258223684211 3.28741776315789  L 7.38384046052632 10  L 0.671258223684211 16.7125822368421  C -0.0534539473684211 17.4372944078947  -0.0534539473684211 18.6040296052632  0.671258223684211 19.3287417763158  C 1.39597039473684 20.0534539473684  2.56270559210526 20.0534539473684  3.28741776315789 19.3287417763158  L 10 12.6161595394737  L 16.7125822368421 19.3287417763158  C 17.4372944078947 20.0534539473684  18.6040296052632 20.0534539473684  19.3287417763158 19.3287417763158  Z " fill-rule="nonzero" fill="#7f7f7f" stroke="none" transform="matrix(1 0 0 1 749 20 )" />
  </g>
</svg>