<?xml version="1.0" encoding="utf-8"?>
<svg version="1.1" xmlns:xlink="http://www.w3.org/1999/xlink" width="40px" height="40px" xmlns="http://www.w3.org/2000/svg">
  <defs>
    <filter x="655px" y="102px" width="40px" height="40px" filterUnits="userSpaceOnUse" id="filter11">
      <feOffset dx="5" dy="5" in="SourceAlpha" result="shadowOffsetInner" />
      <feGaussianBlur stdDeviation="2.5" in="shadowOffsetInner" result="shadowGaussian" />
      <feComposite in2="shadowGaussian" operator="atop" in="SourceAlpha" result="shadowComposite" />
      <feColorMatrix type="matrix" values="0 0 0 0 0  0 0 0 0 0  0 0 0 0 0  0 0 0 0.349019607843137 0  " in="shadowComposite" />
    </filter>
    <g id="widget12">
      <path d="M 656.5 112  A 8.5 8.5 0 0 1 665 103.5 L 675 103.5  A 8.5 8.5 0 0 1 683.5 112 L 683.5 122  A 8.5 8.5 0 0 1 675 130.5 L 665 130.5  A 8.5 8.5 0 0 1 656.5 122 L 656.5 112  Z " fill-rule="nonzero" fill="#ff3366" stroke="none" fill-opacity="0.8" />
      <path d="M 656 112  A 9 9 0 0 1 665 103 L 675 103  A 9 9 0 0 1 684 112 L 684 122  A 9 9 0 0 1 675 131 L 665 131  A 9 9 0 0 1 656 122 L 656 112  Z " stroke-width="2" stroke="#ffffff" fill="none" />
    </g>
  </defs>
  <g transform="matrix(1 0 0 1 -655 -102 )">
    <use xlink:href="#widget12" filter="url(#filter11)" />
    <use xlink:href="#widget12" />
  </g>
</svg>